<svg xmlns="http://www.w3.org/2000/svg" width="32" height="22" fill="none" viewBox="0 0 32 22">
  <g clip-path="url(#a)">
    <path fill="#2E2F42" fill-rule="evenodd" d="M-.1523 1.4277c0-.8284.6715-1.5 1.5-1.5H30.886c.8284 0 1.5.6716 1.5 1.5 0 .8285-.6716 1.5-1.5 1.5H1.3477c-.8285 0-1.5-.6715-1.5-1.5Zm0 9.3077c0-.8284.6715-1.5 1.5-1.5H30.886c.8284 0 1.5.6716 1.5 1.5 0 .8285-.6716 1.5-1.5 1.5H1.3477c-.8285 0-1.5-.6715-1.5-1.5Zm0 9.3077c0-.8284.6715-1.5 1.5-1.5H30.886c.8284 0 1.5.6716 1.5 1.5s-.6716 1.5-1.5 1.5H1.3477c-.8285 0-1.5-.6716-1.5-1.5Z" clip-rule="evenodd"/>
  </g>
  <defs>
    <clipPath id="a">
      <path fill="#fff" d="M0 0h32v22H0z"/>
    </clipPath>
  </defs>
</svg>
